<?xml version="1.0" standalone="no"?>
<!DOCTYPE svg PUBLIC "-//W3C//DTD SVG 20010904//EN"
 "http://www.w3.org/TR/2001/REC-SVG-20010904/DTD/svg10.dtd">
<svg version="1.0" xmlns="http://www.w3.org/2000/svg"
 width="438.000000pt" height="438.000000pt" viewBox="0 0 438.000000 438.000000"
 preserveAspectRatio="xMidYMid meet">
<metadata>
Created by potrace 1.14, written by Peter Selinger 2001-2017
</metadata>
<g transform="translate(0.000000,438.000000) scale(0.100000,-0.100000)"
fill="#000000" stroke="none">
<path d="M1920 4329 c-326 -40 -676 -168 -938 -342 -139 -93 -204 -146 -321
-260 -377 -367 -598 -823 -652 -1344 -14 -143 -7 -419 16 -553 59 -354 202
-688 416 -972 80 -107 310 -337 417 -417 284 -214 618 -357 972 -416 134 -23
410 -30 553 -16 438 45 841 214 1172 491 93 78 242 228 311 314 253 314 422
727 465 1134 15 143 7 445 -15 567 -85 473 -287 865 -611 1190 -323 322 -716
525 -1185 610 -111 20 -481 29 -600 14z m560 -74 c833 -124 1519 -742 1730
-1559 47 -181 64 -319 64 -526 0 -207 -17 -345 -64 -526 -191 -739 -776 -1323
-1515 -1514 -178 -46 -319 -63 -520 -63 -341 0 -624 64 -920 207 -634 309
-1064 898 -1171 1601 -22 150 -22 432 0 589 63 443 261 846 570 1165 180 185
348 309 566 420 246 125 503 198 800 225 84 8 355 -4 460 -19z"/>
<path d="M1955 4069 c-611 -74 -1158 -441 -1456 -976 -415 -747 -275 -1672
347 -2289 84 -83 258 -223 333 -267 31 -18 31 -18 42 7 11 23 8 30 -29 70
-163 176 -206 401 -110 563 l31 52 45 -37 c159 -131 201 -188 202 -269 0 -62
-15 -93 -76 -149 -62 -58 -77 -93 -60 -144 8 -27 21 -40 52 -54 28 -12 47 -30
58 -52 18 -40 89 -88 158 -109 26 -7 61 -24 78 -36 25 -19 50 -25 148 -32 64
-5 133 -8 152 -8 478 14 799 7 919 -20 51 -11 81 -4 81 19 0 9 -15 48 -34 87
-19 38 -39 94 -46 124 -16 69 -16 188 0 270 l13 64 67 -6 c156 -13 338 40 420
122 60 61 73 106 65 220 -8 95 -1 121 41 154 29 23 38 51 24 77 -9 16 -8 25 0
36 14 16 9 60 -16 128 -28 78 -17 94 95 136 93 35 141 72 141 108 0 34 -29
109 -94 250 -102 219 -116 259 -116 321 -1 57 -14 101 -65 223 -27 64 -27 69
-12 86 19 21 22 65 7 109 -7 19 -7 38 -1 54 9 26 -9 89 -27 89 -5 0 -33 33
-63 73 l-55 73 19 30 c38 61 -2 154 -68 154 -17 0 -52 -13 -78 -30 -71 -45
-99 -39 -66 13 10 18 19 35 19 39 0 13 -92 20 -142 10 -76 -15 -88 -4 -73 63
18 74 25 84 169 248 72 82 132 152 134 156 4 11 -218 115 -319 150 -104 36
-228 69 -334 87 -102 18 -416 26 -520 13z m365 -63 c117 -6 272 -36 404 -77
109 -34 296 -117 296 -131 0 -5 -45 -60 -100 -122 l-100 -113 -85 34 c-180 72
-350 103 -570 103 -418 0 -776 -149 -1076 -449 -223 -223 -353 -460 -422 -769
-18 -82 -21 -130 -22 -307 0 -233 16 -340 77 -514 54 -154 161 -346 250 -447
l31 -36 -18 -69 c-24 -93 -17 -218 18 -311 24 -66 24 -67 3 -53 -44 31 -211
203 -271 280 -176 226 -287 451 -355 720 -41 164 -54 296 -47 502 6 195 30
333 86 504 43 129 167 374 249 489 87 123 309 346 432 432 203 144 474 260
716 308 103 21 313 39 379 33 17 -1 73 -4 125 -7z m100 -390 c123 -22 360 -98
360 -115 0 -3 -17 -16 -38 -28 -35 -19 -40 -20 -72 -6 -19 8 -73 25 -120 39
-271 79 -574 69 -845 -26 -395 -140 -723 -475 -853 -870 -109 -329 -90 -711
49 -1010 52 -111 125 -238 156 -272 25 -26 25 -27 7 -57 -10 -17 -21 -31 -24
-31 -13 0 -124 164 -168 249 -383 737 -84 1640 663 2001 157 76 314 120 515
144 64 8 284 -3 370 -18z m-19 -141 c86 -15 249 -61 249 -71 0 -3 -10 -19 -21
-36 -12 -16 -30 -51 -40 -76 l-18 -47 -1 47 c0 26 -3 49 -8 52 -13 8 -69 -22
-111 -60 -56 -50 -81 -86 -107 -158 l-23 -61 -1 40 c-1 66 -11 72 -64 41 -78
-45 -141 -142 -158 -241 -2 -13 -8 -3 -17 28 -8 26 -17 47 -20 47 -18 0 -95
-67 -122 -106 -33 -49 -59 -114 -59 -150 0 -35 -14 -29 -29 11 -7 19 -17 35
-22 35 -20 0 -105 -96 -129 -144 -13 -27 -26 -77 -29 -110 l-7 -61 -12 37
c-22 62 -34 64 -82 12 -52 -57 -90 -137 -97 -209 l-6 -56 -18 31 c-10 16 -23
30 -28 30 -17 0 -74 -74 -99 -130 -15 -31 -28 -80 -30 -113 l-4 -58 -24 22
c-23 21 -25 21 -43 5 -53 -48 -107 -202 -94 -268 l6 -33 -25 23 c-13 12 -27
22 -31 22 -11 0 -61 -92 -79 -145 l-17 -50 -25 58 c-76 170 -107 325 -107 532
0 369 129 684 386 940 313 313 722 442 1166 370z m378 -99 c-15 -42 -39 -76
-83 -120 -33 -35 -72 -69 -85 -75 -23 -13 -24 -13 -17 25 10 52 47 132 80 171
14 17 48 46 74 63 43 28 47 30 50 12 2 -10 -7 -45 -19 -76z m211 -60 c0 -21
-68 -76 -130 -105 -37 -17 -78 -27 -125 -29 l-70 -4 49 43 c65 58 98 77 159
94 70 18 117 19 117 1z m-474 -132 c-24 -52 -138 -184 -159 -184 -14 0 1 87
24 139 26 60 63 106 113 142 l41 31 3 -36 c2 -23 -6 -57 -22 -92z m676 59 c24
-22 23 -46 -6 -80 l-24 -29 89 -106 c49 -59 89 -111 89 -116 0 -19 -28 -32
-101 -47 -175 -36 -402 -129 -539 -220 -127 -84 -279 -264 -467 -552 -51 -79
-99 -143 -106 -143 -7 0 -20 8 -28 18 -9 9 -24 22 -34 28 -18 10 -18 13 10 60
203 349 673 889 982 1127 54 41 102 76 107 76 5 1 18 -6 28 -16z m-211 -24
c19 -9 5 -26 -152 -177 -272 -263 -509 -547 -729 -874 -84 -124 -86 -126 -129
-132 -72 -10 -126 -48 -156 -109 -35 -72 -41 -137 -21 -216 9 -34 16 -69 16
-76 0 -7 -23 -38 -50 -68 -28 -31 -46 -58 -41 -62 15 -9 65 20 95 56 21 25 30
29 39 20 16 -17 -67 -93 -198 -180 -83 -55 -96 -67 -76 -69 34 -5 175 67 251
128 34 27 66 50 71 50 22 0 38 -61 38 -141 -1 -52 9 -135 25 -217 31 -156 32
-193 9 -221 -16 -19 -32 -22 -163 -28 -157 -7 -278 -30 -294 -56 -17 -26 1
-32 52 -17 28 8 122 16 229 19 l183 6 27 28 c26 25 28 33 27 100 -1 40 -11
119 -22 177 -27 138 -35 207 -25 213 16 9 73 -23 73 -42 0 -10 15 -68 34 -129
45 -148 60 -235 54 -322 -9 -125 -34 -134 -319 -117 -143 8 -228 8 -306 0 -64
-6 -113 -7 -119 -1 -9 6 -7 25 8 71 37 117 14 171 -139 328 l-114 116 56 7
c150 17 259 104 290 229 l7 27 -70 0 c-94 0 -161 -15 -214 -49 l-43 -27 0 72
c0 57 3 70 13 62 7 -6 10 -19 7 -29 -5 -15 2 -19 40 -25 162 -24 323 73 369
224 7 20 4 22 -26 22 -57 0 -61 14 -10 32 66 24 126 78 158 144 32 65 27 73
-46 75 l-45 1 58 20 c71 25 158 101 181 160 20 48 13 57 -44 59 -31 0 -29 2
25 18 109 31 174 81 216 163 23 45 17 57 -31 59 -15 0 -5 6 28 15 104 28 175
78 215 153 26 46 26 50 10 60 -17 10 -17 10 0 11 34 0 144 58 180 94 41 41 71
92 62 106 -3 6 -2 10 4 10 6 0 35 9 65 21 63 23 147 94 166 139 7 16 20 30 29
30 9 0 45 15 81 34 36 19 66 34 68 35 2 1 12 -4 23 -10z m-435 -75 c-4 -9 -9
-15 -11 -12 -3 3 -3 13 1 22 4 9 9 15 11 12 3 -3 3 -13 -1 -22z m184 -35 c-46
-63 -146 -110 -266 -124 l-59 -7 45 46 c78 82 141 111 242 115 l60 2 -22 -32z
m-450 -94 c-7 -22 -21 -56 -33 -75 -26 -43 -106 -130 -120 -130 -14 0 1 105
24 166 14 36 37 68 77 105 l57 54 3 -40 c2 -22 -2 -58 -8 -80z m34 -39 c-3
-20 -14 -41 -24 -46 -16 -9 -16 -7 1 27 11 21 19 44 19 52 0 8 3 12 6 9 3 -3
2 -22 -2 -42z m-258 -128 c-3 -27 -14 -67 -24 -90 -21 -48 -97 -148 -112 -148
-6 0 -10 32 -10 73 0 89 21 137 86 208 47 49 48 50 57 27 5 -13 6 -44 3 -70z
m445 75 c-19 -35 -77 -82 -131 -107 -52 -23 -187 -52 -197 -42 -3 2 14 25 37
50 74 80 147 115 243 116 52 0 57 -2 48 -17z m-390 -160 c10 3 17 1 13 -4 -3
-5 1 -9 8 -10 7 0 -7 -8 -32 -18 -25 -10 -46 -17 -47 -16 -1 0 5 24 15 53 16
48 17 49 20 21 3 -25 7 -30 23 -26z m1229 17 c0 -11 -4 -20 -10 -20 -5 0 -10
9 -10 20 0 11 5 20 10 20 6 0 10 -9 10 -20z m-70 -11 c-16 -29 -70 -59 -108
-59 -30 0 -33 2 -30 27 2 23 10 29 48 39 25 7 58 12 73 13 25 1 27 -1 17 -20z
m-210 -36 c0 -33 -45 -96 -80 -114 -19 -10 -52 -21 -72 -24 l-38 -7 6 48 c4
27 10 53 15 58 9 10 136 55 157 56 6 0 12 -8 12 -17z m-1224 -39 c20 -77 -16
-191 -86 -274 -41 -48 -52 -30 -47 75 4 89 18 124 74 186 42 46 50 48 59 13z
m434 15 c0 -7 -21 -33 -47 -59 -55 -54 -132 -87 -225 -97 -58 -6 -60 -5 -50
14 20 37 121 121 164 136 52 19 158 22 158 6z m1075 -116 c34 -84 50 -140 55
-194 9 -78 60 -213 159 -419 48 -99 54 -151 18 -175 -13 -8 -52 -26 -88 -40
-96 -39 -107 -45 -119 -76 -12 -27 -10 -40 15 -101 5 -13 -2 -21 -29 -32 -20
-8 -54 -33 -75 -55 -34 -35 -47 -41 -81 -41 -22 0 -40 -4 -40 -10 0 -5 17 -10
38 -10 31 0 48 9 91 45 36 31 62 45 82 45 37 0 39 -23 4 -46 l-25 -16 26 -25
c48 -44 -5 -67 -93 -38 -15 5 -23 3 -23 -4 0 -6 20 -16 44 -23 l43 -11 -18
-41 c-14 -31 -19 -65 -19 -136 0 -113 -14 -144 -87 -190 -97 -62 -146 -75
-283 -74 -109 0 -135 4 -205 28 -44 15 -109 43 -144 63 -95 53 -294 207 -378
291 -67 68 -74 79 -72 111 3 64 1 67 -28 34 -16 -17 -37 -34 -49 -37 -30 -9
-70 26 -101 87 -14 29 -39 67 -56 86 -52 60 -77 127 -76 206 1 133 54 205 150
205 71 0 116 -53 148 -174 14 -52 20 -61 46 -68 16 -4 46 -3 65 2 31 9 38 7
65 -19 41 -39 69 -52 114 -54 75 -3 114 42 138 159 13 65 23 87 54 123 39 44
69 119 69 174 0 16 -11 57 -25 91 -24 59 -24 65 -10 98 11 28 22 37 48 42 40
7 109 64 142 116 20 32 30 38 72 44 60 8 146 56 169 95 14 24 25 29 71 34 31
3 72 16 96 30 23 14 45 23 48 21 4 -2 28 -57 54 -121z m-1454 -29 c5 -6 7 -19
3 -28 -5 -12 0 -16 22 -16 23 -1 18 -5 -26 -20 -30 -11 -56 -19 -57 -20 0 0 7
23 18 50 10 28 20 60 20 73 2 20 2 20 6 -3 3 -14 9 -30 14 -36z m913 19 c-15
-86 -81 -163 -137 -163 -20 0 -33 -10 -52 -40 -22 -35 -30 -40 -64 -40 -22 0
-44 6 -51 15 -24 29 118 167 241 235 30 16 58 30 62 30 4 0 5 -17 1 -37z
m-1173 -125 c23 -88 -6 -200 -75 -283 l-24 -30 -13 30 c-7 17 -13 62 -13 100
0 55 5 80 23 115 29 54 70 110 82 110 4 0 13 -19 20 -42z m415 3 c-38 -73
-147 -133 -267 -147 l-63 -7 18 29 c63 98 158 152 274 153 l53 1 -15 -29z
m-364 -146 c-11 -24 -10 -25 30 -31 l41 -7 -54 -17 c-30 -9 -55 -16 -57 -15
-1 1 5 21 13 45 8 23 15 59 16 79 l1 36 11 -33 c7 -23 7 -39 -1 -57z m803 -69
c27 -40 10 -92 -46 -147 -26 -26 -57 -62 -68 -80 -34 -56 -22 -94 15 -50 28
33 78 85 123 125 41 38 42 41 40 93 -4 81 37 98 59 25 28 -96 22 -125 -52
-217 -52 -65 -54 -70 -58 -141 -5 -77 -24 -114 -57 -114 -35 0 -91 22 -91 35
0 17 -50 45 -80 45 -20 0 -20 1 -3 27 14 21 18 49 19 124 0 87 3 101 26 137
32 47 137 162 149 162 5 0 16 -11 24 -24z m-1039 -41 c31 -82 -3 -233 -66
-290 -19 -18 -20 -17 -37 21 -27 59 -24 167 6 224 33 64 61 101 71 95 5 -3 16
-25 26 -50z m414 37 c0 -17 -59 -90 -89 -112 -46 -32 -134 -60 -191 -60 -27 0
-50 4 -50 8 0 18 74 103 108 124 20 12 56 28 82 34 52 15 140 18 140 6z m-358
-146 c-9 -18 -11 -16 -11 19 0 33 1 37 10 21 8 -12 8 -25 1 -40z m70 -72 c-29
-8 -66 -21 -82 -29 -34 -17 -35 -16 -19 19 11 23 16 25 83 24 l71 -1 -53 -13z
m148 -22 c0 -16 -55 -90 -82 -112 -45 -35 -114 -60 -183 -67 -78 -7 -83 2 -32
69 58 75 142 114 255 117 23 1 42 -3 42 -7z m-449 -44 c20 -35 24 -57 24 -118
0 -65 -5 -85 -33 -143 -19 -38 -39 -66 -45 -64 -27 9 -56 92 -57 158 0 56 5
77 36 138 19 39 39 71 43 71 4 0 18 -19 32 -42z m969 -22 c0 -43 -31 -105 -57
-114 -25 -8 -14 62 17 111 16 26 32 47 35 47 3 0 5 -20 5 -44z m-890 -112
c-10 -26 3 -34 58 -34 l37 -1 -44 -15 c-25 -9 -55 -23 -67 -31 -22 -14 -22
-14 -13 24 5 21 9 56 9 77 0 37 1 38 14 21 9 -13 11 -27 6 -41z m211 -101
c-26 -52 -77 -98 -133 -123 -53 -23 -172 -38 -181 -23 -9 14 57 107 94 133 44
32 104 49 177 49 l62 1 -19 -37z m-428 -68 c34 -64 31 -172 -8 -250 -16 -33
-34 -60 -40 -59 -5 0 -25 29 -44 65 -30 58 -33 70 -28 126 3 41 15 85 37 130
35 76 36 76 83 -12z m337 -150 c0 -3 -9 -22 -19 -43 -42 -80 -127 -135 -231
-146 -76 -9 -87 1 -62 50 38 73 90 114 169 133 43 10 143 14 143 6z m763 -270
c62 -57 144 -129 182 -160 71 -56 293 -175 327 -175 30 0 32 -25 7 -113 -33
-119 -31 -228 5 -330 15 -43 26 -81 23 -83 -3 -3 -40 2 -83 11 -91 19 -207 21
-453 6 -96 -6 -177 -9 -179 -6 -2 2 2 28 9 58 11 51 14 56 45 62 44 8 92 57
100 103 5 27 1 54 -14 99 -21 59 -21 64 -6 124 15 57 15 69 -1 153 -9 50 -29
136 -45 191 -34 119 -44 165 -35 165 4 0 57 -47 118 -105z m-569 -534 c3 -5 0
-44 -6 -88 -11 -74 -10 -86 11 -148 23 -73 19 -88 -23 -77 -71 18 -91 62 -91
200 0 80 3 105 15 112 19 12 87 13 94 1z m235 -47 c14 -62 54 -114 101 -134
43 -18 40 -52 -9 -101 -38 -38 -40 -39 -114 -39 -90 0 -104 11 -138 99 -16 43
-20 71 -16 121 6 101 14 110 96 110 l68 0 12 -56z m245 40 c3 -9 6 -33 6 -55
0 -48 -35 -89 -76 -89 -39 0 -104 68 -104 109 l0 31 63 0 c34 0 69 5 77 10 21
13 27 12 34 -6z m-809 -4 c3 -5 1 -27 -5 -49 -10 -38 -12 -40 -35 -29 -42 19
-43 56 -2 76 28 14 35 14 42 2z m160 -110 c0 -100 -2 -110 -18 -110 -54 0 -87
52 -87 138 0 51 3 60 23 70 12 6 36 11 52 11 l30 1 0 -110z"/>
<path d="M2197 3957 c-3 -8 -8 -60 -12 -115 -7 -98 -7 -102 13 -102 22 0 23 7
38 163 6 63 5 67 -14 67 -11 0 -22 -6 -25 -13z"/>
<path d="M1870 3931 c0 -17 19 -118 35 -188 4 -15 10 -20 25 -16 24 6 24 0 0
118 -11 53 -20 99 -20 101 0 2 -9 4 -20 4 -13 0 -20 -7 -20 -19z"/>
<path d="M2494 3826 c-38 -96 -40 -105 -23 -109 10 -3 22 0 27 7 9 11 82 191
82 201 0 3 -10 5 -22 5 -20 0 -29 -15 -64 -104z"/>
<path d="M1553 3863 c-17 -6 82 -203 102 -203 28 0 24 21 -22 114 -46 92 -53
100 -80 89z"/>
<path d="M2752 3758 c-70 -88 -76 -107 -37 -108 9 0 114 127 139 168 7 13 -7
31 -24 32 -3 0 -38 -41 -78 -92z"/>
<path d="M1251 3721 c-11 -7 2 -27 59 -93 41 -45 77 -83 82 -82 24 3 28 5 28
15 0 12 -139 169 -149 169 -3 0 -12 -4 -20 -9z"/>
<path d="M971 3516 c-9 -10 8 -27 85 -80 87 -61 99 -66 112 -52 9 9 14 17 11
19 -23 21 -180 127 -187 127 -5 0 -15 -6 -21 -14z"/>
<path d="M739 3264 c-16 -20 -10 -24 104 -68 79 -31 100 -36 112 -26 23 19 19
24 -27 42 -24 9 -73 27 -110 41 -58 22 -68 24 -79 11z"/>
<path d="M551 2962 c-12 -23 -20 -21 126 -42 96 -13 101 -13 112 9 10 17 4 20
-72 30 -45 7 -98 15 -119 18 -30 4 -38 2 -47 -15z"/>
<path d="M530 2663 c-81 -8 -98 -13 -103 -35 -6 -20 -4 -20 71 -14 155 13 172
17 172 37 0 16 -7 19 -52 17 -29 0 -69 -3 -88 -5z"/>
<path d="M488 2347 c-105 -38 -118 -45 -118 -66 0 -14 5 -21 13 -18 6 2 60 21
120 42 95 34 107 40 107 61 0 13 -1 24 -2 23 -2 0 -56 -19 -120 -42z"/>
<path d="M485 2024 c-55 -37 -102 -68 -104 -70 -2 -2 0 -13 5 -24 8 -19 16
-15 111 48 79 52 103 72 103 90 0 12 -3 22 -8 22 -4 0 -52 -30 -107 -66z"/>
<path d="M548 1705 c-64 -70 -85 -101 -81 -115 3 -11 8 -20 12 -20 7 0 152
156 164 177 4 6 3 21 -1 33 -7 19 -16 12 -94 -75z"/>
<path d="M672 1392 c-55 -107 -60 -121 -48 -138 8 -10 16 -17 19 -14 2 3 30
55 61 116 49 95 56 115 47 133 -7 12 -13 21 -14 21 -2 0 -31 -53 -65 -118z"/>
<path d="M841 1136 c-27 -110 -31 -139 -21 -151 7 -8 16 -15 20 -15 4 0 20 53
35 118 15 64 29 122 32 128 2 6 -4 21 -14 33 -18 22 -19 21 -52 -113z"/>
<path d="M3112 2460 c-24 -11 -77 -44 -118 -74 -41 -30 -80 -56 -87 -59 -6 -2
-9 -7 -5 -11 8 -9 56 15 118 60 55 40 127 73 156 74 11 0 29 -9 39 -20 21 -23
35 -26 35 -7 0 22 -44 57 -71 57 -13 0 -43 -9 -67 -20z"/>
<path d="M3200 2367 c0 -18 -23 -31 -71 -41 -14 -3 -61 -29 -105 -57 -43 -29
-101 -62 -129 -75 -46 -20 -48 -22 -25 -27 54 -12 247 -26 285 -21 l40 6 3 76
c2 55 7 79 17 85 19 10 19 28 0 53 -13 17 -14 17 -15 1z m-36 -103 c4 -9 3
-32 0 -51 -6 -29 -10 -34 -28 -29 -11 3 -51 6 -88 6 -38 0 -68 3 -68 8 0 8
148 82 166 82 6 0 15 -7 18 -16z"/>
<path d="M1941 1954 c-78 -33 -97 -208 -29 -282 13 -13 40 -35 61 -48 21 -14
37 -32 37 -43 0 -43 62 -55 68 -13 2 12 -1 22 -7 22 -6 0 -11 -4 -11 -10 0
-22 -28 -8 -40 20 -7 17 -31 43 -53 58 -47 32 -77 83 -77 132 0 115 72 192
116 124 15 -22 16 -35 7 -92 -11 -71 0 -112 32 -112 19 0 19 19 0 40 -12 13
-13 27 -5 76 18 107 -23 160 -99 128z"/>
<path d="M3271 1907 c-29 -76 -18 -157 22 -165 9 -2 51 13 92 32 42 20 80 36
84 36 5 0 11 7 15 15 9 24 -21 18 -100 -21 -40 -21 -79 -34 -88 -31 -18 7 -21
50 -7 110 10 42 -4 61 -18 24z"/>
</g>
</svg>
